<svg width="323" height="323" viewBox="0 0 323 323" fill="none" xmlns="http://www.w3.org/2000/svg">
<path d="M0 110.997C0 49.6952 49.6952 0 110.997 0H212.003C273.305 0 323 49.6952 323 110.997V212.003C323 273.305 273.305 323 212.003 323H14.2711C6.38938 323 0 316.611 0 308.729V110.997Z" fill="url(#paint0_linear_8739_31)"/>
<path d="M65 228.128C65 216.601 74.3108 207.257 85.7962 207.257C97.2817 207.257 106.592 216.601 106.592 228.128C106.592 239.655 97.2817 249 85.7962 249C74.3108 249 65 239.655 65 228.128Z" fill="white"/>
<path d="M178.521 158C185.051 158 190.204 163.571 189.72 170.107C189.283 175.991 184.399 180.541 178.521 180.541H158.375C154.815 180.541 151.928 183.438 151.928 187.011C151.928 190.585 154.815 193.482 158.375 193.482H185.263C191.882 193.482 198.23 190.843 202.91 186.146L221.14 167.85C223.429 165.552 226.533 164.262 229.77 164.261C240.644 164.261 246.09 177.456 238.401 185.173L202.91 220.792C198.23 225.489 191.882 228.128 185.263 228.128H121.566C121.566 208.302 105.551 192.229 85.7962 192.229C83.468 192.229 81.1922 192.455 78.9879 192.882L102.484 166.393C107.219 161.054 114.002 158 121.124 158H178.521Z" fill="white"/>
<path d="M57 117.7C57 115.657 58.6565 114 60.6999 114H273.709C275.753 114 277.409 115.657 277.409 117.7C277.409 127.917 269.127 136.199 258.91 136.199H75.4996C65.2825 136.199 57 127.917 57 117.7Z" fill="white"/>
<defs>
<linearGradient id="paint0_linear_8739_31" x1="213.957" y1="95.413" x2="-7.18884e-06" y2="323" gradientUnits="userSpaceOnUse">
<stop stop-color="#460BA7"/>
<stop offset="1" stop-color="#E500C7"/>
</linearGradient>
</defs>
</svg>
