<?xml version="1.0" encoding="utf-8"?>
<!-- Generator: Adobe Illustrator 25.4.1, SVG Export Plug-In . SVG Version: 6.00 Build 0)  -->
<svg version="1.1" id="Layer_1" xmlns="http://www.w3.org/2000/svg" xmlns:xlink="http://www.w3.org/1999/xlink" x="0px" y="0px"
	 viewBox="0 0 2000 2000" style="enable-background:new 0 0 2000 2000;" xml:space="preserve">
<style type="text/css">
	.st0{fill:#FFFFFF;}
	.st1{fill:#1A1A1A;}
	.st2{fill:url(#SVGID_1_);}
	.st3{fill:url(#SVGID_00000088843642558385019260000014689439378487226760_);}
	.st4{fill:url(#SVGID_00000178190355841324736920000007571841344838255251_);}
</style>
<rect class="st0" width="2000" height="2000"/>
<g>
	<g>
		<path class="st1" d="M904.35,1134.57V858.86h48.11l103.99,164.68c3.33,5.06,7.09,11.26,11.29,18.6
			c4.19,7.34,8.66,15.54,13.42,24.61c4.75,9.07,9.4,18.72,13.97,28.96l-5,2.04c-0.86-9.74-1.57-19.67-2.13-29.79
			c-0.55-10.11-0.93-19.61-1.11-28.5c-0.18-8.88-0.28-16.22-0.28-22.02V858.86h42.37v275.71h-48.29l-93.26-147.29
			c-4.44-7.28-9.04-14.92-13.79-22.94s-10.06-17.33-15.91-27.94c-5.86-10.61-12.8-23.25-20.82-37.93l6.48-1.85
			c0.74,13.69,1.36,26.4,1.85,38.12s0.89,22.05,1.2,30.99c0.31,8.95,0.46,16.07,0.46,21.37v147.47H904.35z"/>
		<path class="st1" d="M1204.66,898.27c-7.03,0-13.02-2.37-17.95-7.12c-4.93-4.75-7.4-10.45-7.4-17.12c0-6.78,2.47-12.49,7.4-17.12
			s10.92-6.94,17.95-6.94c7.03,0,13.01,2.31,17.95,6.94c4.93,4.63,7.4,10.33,7.4,17.12c0,6.66-2.47,12.37-7.4,17.12
			C1217.67,895.9,1211.69,898.27,1204.66,898.27z M1184.31,1134.57V930.29h40.52v204.28H1184.31z"/>
		<path class="st1" d="M1317.53,858.86v275.71h-40.52V858.86H1317.53z"/>
		<path class="st1" d="M1457.79,1138.82c-20.23,0-37.63-4.38-52.18-13.14c-14.56-8.76-25.75-21.03-33.58-36.82
			c-7.84-15.79-11.75-34.23-11.75-55.33c0-20.85,3.89-39.26,11.66-55.23s18.75-28.46,32.94-37.47c14.18-9,30.72-13.51,49.59-13.51
			c12.33,0,24.02,2.04,35.06,6.11s20.85,10.33,29.42,18.78c8.57,8.45,15.33,19.18,20.26,32.2s7.4,28.47,7.4,46.35v13.69h-164.87
			v-30.35h143.96l-18.5,9.81c0-12.46-2.01-23.47-6.01-33.03c-4.01-9.56-9.93-16.99-17.76-22.3c-7.84-5.3-17.43-7.96-28.77-7.96
			c-11.35,0-21.07,2.71-29.14,8.14c-8.08,5.43-14.28,12.65-18.6,21.65c-4.32,9.01-6.48,19.06-6.48,30.16v19.8
			c0,13.69,2.37,25.41,7.12,35.16s11.47,17.18,20.17,22.3c8.7,5.12,18.84,7.68,30.44,7.68c7.77,0,14.8-1.14,21.09-3.42
			c6.29-2.28,11.66-5.64,16.1-10.08s7.77-9.87,9.99-16.28l38.12,7.03c-3.08,11.1-8.58,20.88-16.47,29.33
			c-7.9,8.45-17.73,15.02-29.51,19.71C1485.7,1136.48,1472.47,1138.82,1457.79,1138.82z"/>
		<path class="st1" d="M1662.63,1139.01c-15.05,0-28.44-2.22-40.15-6.66c-11.72-4.44-21.28-11.01-28.68-19.71
			s-12.21-19.34-14.43-31.92l38.49-6.29c2.47,10.73,7.49,18.72,15.08,23.96s17.49,7.86,29.7,7.86c12.95,0,23.25-2.68,30.9-8.05
			s11.47-11.87,11.47-19.52c0-6.66-2.44-12.12-7.31-16.38c-4.87-4.26-12.06-7.43-21.56-9.53l-34.42-7.59
			c-19-4.32-33.19-11.2-42.56-20.63c-9.38-9.44-14.06-21.56-14.06-36.36c0-12.21,3.36-22.88,10.08-32.01s16.01-16.22,27.85-21.28
			c11.84-5.06,25.47-7.59,40.89-7.59c14.92,0,27.78,2.25,38.58,6.75c10.79,4.5,19.49,10.82,26.09,18.97
			c6.6,8.14,11.07,17.64,13.42,28.5l-36.82,6.29c-1.97-7.77-6.23-14.49-12.77-20.17c-6.54-5.67-15.85-8.51-27.94-8.51
			c-11.23,0-20.51,2.53-27.85,7.59s-11.01,11.54-11.01,19.43c0,6.79,2.53,12.28,7.59,16.47c5.06,4.2,12.95,7.53,23.68,9.99
			l33.12,7.4c19.24,4.32,33.46,11.04,42.65,20.17c9.19,9.13,13.78,20.91,13.78,35.34c0,12.46-3.58,23.47-10.73,33.03
			c-7.16,9.56-17.02,17.02-29.61,22.39C1693.53,1136.32,1679.03,1139.01,1662.63,1139.01z"/>
	</g>
	<g>
		
			<linearGradient id="SVGID_1_" gradientUnits="userSpaceOnUse" x1="537.4495" y1="1107.0784" x2="537.4495" y2="840.3441" gradientTransform="matrix(1 0 0 -1 0 2000)">
			<stop  offset="0" style="stop-color:#F72585"/>
			<stop  offset="0.5" style="stop-color:#7209B7"/>
			<stop  offset="1" style="stop-color:#3A0CA3"/>
		</linearGradient>
		<path class="st2" d="M737.78,913.66c-15,13.84-81.86,88.77-115.3,93.39c-33.43,4.61-163.71-16.14-206.37,17.3
			c-42.25,33.12-9.85,123.92-9.23,125.64c0,0.01,0,0.01,0.01,0.03c-97.32-40.11-114.3-171.51-29.63-234.03
			c20.57-15.19,40.42-23.74,61.91-26.54c62.25-8.07,139.5,6.93,176.39,0c36.9-6.91,17.3,64.86-68.02,52.18
			c-83.61-12.43-87.31,3.4-82.2,4.29c0.11,0.01,0.23,0.01,0.34,0.03c0.55,0,2.21,0.12,4.76,0.32c0.43,0.04,0.85,0.07,1.28,0.09
			c26.44,2.17,128.71,11.63,146.14,6.51c19.61-5.77,66.88-69.49,107.23-65.87C765.44,890.61,752.76,899.84,737.78,913.66z"/>
		
			<linearGradient id="SVGID_00000032634580037136697290000004608557390590402479_" gradientUnits="userSpaceOnUse" x1="561.6724" y1="1139.3607" x2="561.6724" y2="872.6537" gradientTransform="matrix(1 0 0 -1 0 2000)">
			<stop  offset="0" style="stop-color:#F72585"/>
			<stop  offset="0.5" style="stop-color:#7209B7"/>
			<stop  offset="1" style="stop-color:#3A0CA3"/>
		</linearGradient>
		<path style="fill:url(#SVGID_00000032634580037136697290000004608557390590402479_);" d="M737.78,913.66
			c-15,13.84-81.86,88.77-115.3,93.39c-33.43,4.61-163.71-16.14-206.37,17.3c-42.25,33.12-9.85,123.92-9.23,125.64
			c-64.09-79.45-40.35-211.12,58.47-204.07c0.11,0.01,0.23,0.01,0.34,0.03c1.6,0.12,3.19,0.23,4.76,0.32
			c0.43,0.04,0.85,0.07,1.28,0.09c26.44,2.17,128.71,11.63,146.14,6.51c19.61-5.77,66.88-69.49,107.23-65.87
			C765.44,890.61,752.76,899.84,737.78,913.66z"/>
		
			<linearGradient id="SVGID_00000014610572091456786170000012346420168280073364_" gradientUnits="userSpaceOnUse" x1="264.3293" y1="1126.25" x2="836.0288" y2="1126.25" gradientTransform="matrix(1 0 0 -1 0 2000)">
			<stop  offset="0" style="stop-color:#3A0CA3"/>
			<stop  offset="0.5" style="stop-color:#7209B7"/>
			<stop  offset="1" style="stop-color:#F72585"/>
		</linearGradient>
		<path style="fill:url(#SVGID_00000014610572091456786170000012346420168280073364_);" d="M848.45,860.64L848.45,860.64
			c0,14.48-11.74,26.22-26.22,26.22H279.77c-14.48,0-26.22-11.74-26.22-26.22l0,0H848.45z"/>
	</g>
</g>
</svg>
