<svg width="1050" height="323" viewBox="0 0 1050 323" fill="none" xmlns="http://www.w3.org/2000/svg">
<path d="M0 110.997C0 49.6952 49.6952 0 110.997 0H212.003C273.305 0 323 49.6952 323 110.997V212.003C323 273.305 273.305 323 212.003 323H14.2711C6.38938 323 0 316.611 0 308.729V110.997Z" fill="url(#paint0_linear_8739_40)"/>
<path d="M65 228.128C65 216.601 74.3108 207.257 85.7962 207.257C97.2817 207.257 106.592 216.601 106.592 228.128C106.592 239.655 97.2817 249 85.7962 249C74.3108 249 65 239.655 65 228.128Z" fill="white"/>
<path d="M178.521 158C185.051 158 190.204 163.571 189.72 170.107C189.283 175.991 184.399 180.541 178.521 180.541H158.375C154.815 180.541 151.928 183.438 151.928 187.011C151.928 190.585 154.815 193.482 158.375 193.482H185.263C191.882 193.482 198.23 190.843 202.91 186.146L221.14 167.85C223.429 165.552 226.533 164.262 229.77 164.261C240.644 164.261 246.09 177.456 238.401 185.173L202.91 220.792C198.23 225.489 191.882 228.128 185.263 228.128H121.566C121.566 208.302 105.551 192.229 85.7962 192.229C83.468 192.229 81.1922 192.455 78.9879 192.882L102.484 166.393C107.219 161.054 114.002 158 121.124 158H178.521Z" fill="white"/>
<path d="M57 117.7C57 115.657 58.6565 114 60.6999 114H273.709C275.753 114 277.409 115.657 277.409 117.7C277.409 127.917 269.127 136.199 258.91 136.199H75.4996C65.2825 136.199 57 127.917 57 117.7Z" fill="white"/>
<path d="M991.31 259.851C978.671 259.851 967.418 257.687 957.55 253.359C947.681 249.03 939.891 243.144 934.177 235.7C928.464 228.082 925.261 219.599 924.569 210.25H968.457C968.976 215.27 971.313 219.339 975.469 222.455C979.624 225.572 984.731 227.13 990.79 227.13C996.33 227.13 1000.57 226.091 1003.52 224.013C1006.63 221.763 1008.19 218.906 1008.19 215.444C1008.19 211.288 1006.03 208.259 1001.7 206.354C997.369 204.277 990.358 202.026 980.662 199.602C970.275 197.179 961.618 194.668 954.693 192.071C947.768 189.301 941.795 185.06 936.774 179.346C931.754 173.46 929.243 165.583 929.243 155.714C929.243 147.404 931.494 139.873 935.995 133.121C940.67 126.196 947.422 120.742 956.251 116.761C965.254 112.779 975.901 110.788 988.193 110.788C1006.37 110.788 1020.65 115.289 1031.04 124.292C1041.6 133.294 1047.66 145.24 1049.22 160.129H1008.19C1007.5 155.108 1005.25 151.126 1001.44 148.183C997.802 145.24 992.954 143.769 986.895 143.769C981.701 143.769 977.719 144.807 974.949 146.885C972.179 148.789 970.794 151.473 970.794 154.935C970.794 159.09 972.958 162.207 977.286 164.284C981.788 166.362 988.713 168.439 998.062 170.517C1008.8 173.287 1017.54 176.057 1024.29 178.827C1031.04 181.424 1036.93 185.752 1041.95 191.812C1047.14 197.698 1049.83 205.662 1050 215.703C1050 224.187 1047.58 231.804 1042.73 238.556C1038.05 245.135 1031.22 250.329 1022.21 254.138C1013.38 257.947 1003.08 259.851 991.31 259.851Z" fill="#211037"/>
<path d="M908.932 182.982C908.932 187.137 908.672 191.465 908.153 195.967H807.652C808.345 204.969 811.201 211.894 816.222 216.742C821.416 221.416 827.735 223.754 835.179 223.754C846.26 223.754 853.964 219.079 858.292 209.73H905.556C903.132 219.252 898.717 227.822 892.312 235.44C886.079 243.057 878.202 249.03 868.68 253.359C859.158 257.687 848.51 259.851 836.738 259.851C822.541 259.851 809.903 256.821 798.823 250.762C787.742 244.702 779.086 236.046 772.853 224.792C766.621 213.539 763.504 200.381 763.504 185.319C763.504 170.257 766.534 157.099 772.594 145.846C778.826 134.593 787.483 125.936 798.563 119.877C809.643 113.817 822.368 110.788 836.738 110.788C850.761 110.788 863.226 113.731 874.133 119.617C885.04 125.503 893.524 133.9 899.583 144.807C905.816 155.714 908.932 168.439 908.932 182.982ZM863.486 171.296C863.486 163.678 860.889 157.619 855.695 153.117C850.501 148.616 844.009 146.365 836.218 146.365C828.774 146.365 822.455 148.53 817.261 152.858C812.24 157.186 809.124 163.332 807.912 171.296H863.486Z" fill="#211037"/>
<path d="M740.152 65.6011V257.773H695.745V65.6011H740.152Z" fill="#211037"/>
<path d="M641.49 97.8031C633.699 97.8031 627.294 95.5524 622.273 91.0511C617.425 86.3766 615.001 80.6634 615.001 73.9114C615.001 66.9863 617.425 61.273 622.273 56.7717C627.294 52.0972 633.699 49.76 641.49 49.76C649.108 49.76 655.34 52.0972 660.188 56.7717C665.209 61.273 667.719 66.9863 667.719 73.9114C667.719 80.6634 665.209 86.3766 660.188 91.0511C655.34 95.5524 649.108 97.8031 641.49 97.8031ZM663.564 112.865V257.773H619.157V112.865H663.564Z" fill="#211037"/>
<path d="M586.967 257.773H542.559L468.287 145.327V257.773H423.88V75.4695H468.287L542.559 188.436V75.4695H586.967V257.773Z" fill="#211037"/>
<defs>
<linearGradient id="paint0_linear_8739_40" x1="213.957" y1="95.413" x2="-7.18884e-06" y2="323" gradientUnits="userSpaceOnUse">
<stop stop-color="#460BA7"/>
<stop offset="1" stop-color="#E500C7"/>
</linearGradient>
</defs>
</svg>
